<mxfile host="app.diagrams.net" agent="Mozilla/5.0 (Windows NT 10.0; Win64; x64) AppleWebKit/537.36 (KHTML, like Gecko) Chrome/114.0.0.0 YaBrowser/23.7.1.1266 (corp) Yowser/2.5 Safari/537.36" version="26.0.15">
  <diagram name="Страница — 1" id="iTyClyJtpyBLZT4Np46Z">
    <mxGraphModel dx="4654" dy="2743" grid="1" gridSize="10" guides="1" tooltips="1" connect="1" arrows="1" fold="1" page="1" pageScale="1" pageWidth="827" pageHeight="1169" math="0" shadow="0">
      <root>
        <mxCell id="0" />
        <mxCell id="1" parent="0" />
        <mxCell id="rV5EWGeJ147Zy9GmdHEg-96" style="edgeStyle=orthogonalEdgeStyle;rounded=0;orthogonalLoop=1;jettySize=auto;html=1;exitX=0;exitY=0.5;exitDx=0;exitDy=0;entryX=1;entryY=0.5;entryDx=0;entryDy=0;" edge="1" parent="1" source="rV5EWGeJ147Zy9GmdHEg-94" target="rV5EWGeJ147Zy9GmdHEg-7">
          <mxGeometry relative="1" as="geometry" />
        </mxCell>
        <mxCell id="rV5EWGeJ147Zy9GmdHEg-97" style="edgeStyle=orthogonalEdgeStyle;rounded=0;orthogonalLoop=1;jettySize=auto;html=1;exitX=0.5;exitY=0;exitDx=0;exitDy=0;entryX=0.5;entryY=1;entryDx=0;entryDy=0;" edge="1" parent="1" source="rV5EWGeJ147Zy9GmdHEg-94" target="rV5EWGeJ147Zy9GmdHEg-5">
          <mxGeometry relative="1" as="geometry" />
        </mxCell>
        <mxCell id="rV5EWGeJ147Zy9GmdHEg-98" style="edgeStyle=orthogonalEdgeStyle;rounded=0;orthogonalLoop=1;jettySize=auto;html=1;exitX=0.5;exitY=1;exitDx=0;exitDy=0;entryX=0.5;entryY=0;entryDx=0;entryDy=0;" edge="1" parent="1" source="rV5EWGeJ147Zy9GmdHEg-94" target="rV5EWGeJ147Zy9GmdHEg-2">
          <mxGeometry relative="1" as="geometry" />
        </mxCell>
        <mxCell id="rV5EWGeJ147Zy9GmdHEg-94" value="" style="rounded=0;whiteSpace=wrap;html=1;" vertex="1" parent="1">
          <mxGeometry x="-795" y="-20" width="190" height="250" as="geometry" />
        </mxCell>
        <mxCell id="rV5EWGeJ147Zy9GmdHEg-1" value="Покупатель" style="shape=umlActor;verticalLabelPosition=bottom;verticalAlign=top;outlineConnect=0;html=1;horizontal=1;" vertex="1" parent="1">
          <mxGeometry x="-750" y="5" width="100" height="180" as="geometry" />
        </mxCell>
        <mxCell id="rV5EWGeJ147Zy9GmdHEg-86" style="edgeStyle=orthogonalEdgeStyle;rounded=0;orthogonalLoop=1;jettySize=auto;html=1;exitX=0.5;exitY=1;exitDx=0;exitDy=0;entryX=0.5;entryY=0;entryDx=0;entryDy=0;" edge="1" parent="1" source="rV5EWGeJ147Zy9GmdHEg-2" target="rV5EWGeJ147Zy9GmdHEg-3">
          <mxGeometry relative="1" as="geometry" />
        </mxCell>
        <mxCell id="rV5EWGeJ147Zy9GmdHEg-2" value="Поиск билетов" style="rounded=1;whiteSpace=wrap;html=1;" vertex="1" parent="1">
          <mxGeometry x="-760" y="245" width="120" height="60" as="geometry" />
        </mxCell>
        <mxCell id="rV5EWGeJ147Zy9GmdHEg-87" style="edgeStyle=orthogonalEdgeStyle;rounded=0;orthogonalLoop=1;jettySize=auto;html=1;exitX=0.5;exitY=1;exitDx=0;exitDy=0;entryX=0.5;entryY=0;entryDx=0;entryDy=0;" edge="1" parent="1" source="rV5EWGeJ147Zy9GmdHEg-3" target="rV5EWGeJ147Zy9GmdHEg-83">
          <mxGeometry relative="1" as="geometry" />
        </mxCell>
        <mxCell id="rV5EWGeJ147Zy9GmdHEg-3" value="Бронирование билетов" style="rounded=1;whiteSpace=wrap;html=1;" vertex="1" parent="1">
          <mxGeometry x="-630" y="345" width="120" height="60" as="geometry" />
        </mxCell>
        <mxCell id="rV5EWGeJ147Zy9GmdHEg-5" value="Отмена бронирования" style="rounded=1;whiteSpace=wrap;html=1;" vertex="1" parent="1">
          <mxGeometry x="-750" y="-115" width="120" height="60" as="geometry" />
        </mxCell>
        <mxCell id="rV5EWGeJ147Zy9GmdHEg-6" value="Просмотр бронирования" style="rounded=1;whiteSpace=wrap;html=1;" vertex="1" parent="1">
          <mxGeometry x="-390" y="-180" width="120" height="60" as="geometry" />
        </mxCell>
        <mxCell id="rV5EWGeJ147Zy9GmdHEg-7" value="Изменение профиля" style="rounded=1;whiteSpace=wrap;html=1;" vertex="1" parent="1">
          <mxGeometry x="-960" y="75" width="120" height="60" as="geometry" />
        </mxCell>
        <mxCell id="rV5EWGeJ147Zy9GmdHEg-16" value="Обновление информации о рейсах" style="rounded=1;whiteSpace=wrap;html=1;" vertex="1" parent="1">
          <mxGeometry x="870" y="-100" width="120" height="60" as="geometry" />
        </mxCell>
        <mxCell id="rV5EWGeJ147Zy9GmdHEg-17" value="Управление пользователями" style="rounded=1;whiteSpace=wrap;html=1;" vertex="1" parent="1">
          <mxGeometry x="1040" y="-100" width="120" height="60" as="geometry" />
        </mxCell>
        <mxCell id="rV5EWGeJ147Zy9GmdHEg-18" value="Управление ценами" style="rounded=1;whiteSpace=wrap;html=1;" vertex="1" parent="1">
          <mxGeometry x="650" y="-100" width="120" height="60" as="geometry" />
        </mxCell>
        <mxCell id="rV5EWGeJ147Zy9GmdHEg-20" value="Техническое обслуживание" style="rounded=1;whiteSpace=wrap;html=1;" vertex="1" parent="1">
          <mxGeometry x="855" y="320" width="120" height="60" as="geometry" />
        </mxCell>
        <mxCell id="rV5EWGeJ147Zy9GmdHEg-79" style="edgeStyle=orthogonalEdgeStyle;rounded=0;orthogonalLoop=1;jettySize=auto;html=1;dashed=1;exitX=0;exitY=0.5;exitDx=0;exitDy=0;" edge="1" parent="1" source="rV5EWGeJ147Zy9GmdHEg-6" target="rV5EWGeJ147Zy9GmdHEg-5">
          <mxGeometry relative="1" as="geometry">
            <mxPoint x="-250" y="-150" as="sourcePoint" />
          </mxGeometry>
        </mxCell>
        <mxCell id="rV5EWGeJ147Zy9GmdHEg-73" value="Автоматическая система бронирования билетов" style="text;html=1;align=center;verticalAlign=middle;whiteSpace=wrap;rounded=0;fontSize=26;" vertex="1" parent="1">
          <mxGeometry x="-280" y="-290" width="750" height="30" as="geometry" />
        </mxCell>
        <mxCell id="rV5EWGeJ147Zy9GmdHEg-81" value="inclide" style="text;html=1;align=center;verticalAlign=middle;resizable=0;points=[];autosize=1;strokeColor=none;fillColor=none;" vertex="1" parent="1">
          <mxGeometry x="-500" y="-180" width="60" height="30" as="geometry" />
        </mxCell>
        <mxCell id="rV5EWGeJ147Zy9GmdHEg-83" value="Оплата билетов" style="rounded=1;whiteSpace=wrap;html=1;" vertex="1" parent="1">
          <mxGeometry x="-670" y="435" width="120" height="60" as="geometry" />
        </mxCell>
        <mxCell id="rV5EWGeJ147Zy9GmdHEg-91" style="edgeStyle=orthogonalEdgeStyle;rounded=0;orthogonalLoop=1;jettySize=auto;html=1;exitX=0.5;exitY=0;exitDx=0;exitDy=0;entryX=0;entryY=0.5;entryDx=0;entryDy=0;dashed=1;" edge="1" parent="1" source="rV5EWGeJ147Zy9GmdHEg-88" target="rV5EWGeJ147Zy9GmdHEg-83">
          <mxGeometry relative="1" as="geometry" />
        </mxCell>
        <mxCell id="rV5EWGeJ147Zy9GmdHEg-88" value="Данные карты" style="rounded=1;whiteSpace=wrap;html=1;" vertex="1" parent="1">
          <mxGeometry x="-750" y="550" width="120" height="60" as="geometry" />
        </mxCell>
        <mxCell id="rV5EWGeJ147Zy9GmdHEg-92" style="edgeStyle=orthogonalEdgeStyle;rounded=0;orthogonalLoop=1;jettySize=auto;html=1;exitX=0.5;exitY=0;exitDx=0;exitDy=0;entryX=0.5;entryY=1;entryDx=0;entryDy=0;dashed=1;" edge="1" parent="1" source="rV5EWGeJ147Zy9GmdHEg-89" target="rV5EWGeJ147Zy9GmdHEg-83">
          <mxGeometry relative="1" as="geometry" />
        </mxCell>
        <mxCell id="rV5EWGeJ147Zy9GmdHEg-89" value="Дата" style="rounded=1;whiteSpace=wrap;html=1;" vertex="1" parent="1">
          <mxGeometry x="-610" y="524.5" width="120" height="60" as="geometry" />
        </mxCell>
        <mxCell id="rV5EWGeJ147Zy9GmdHEg-93" style="edgeStyle=orthogonalEdgeStyle;rounded=0;orthogonalLoop=1;jettySize=auto;html=1;exitX=0.5;exitY=0;exitDx=0;exitDy=0;entryX=1;entryY=0.5;entryDx=0;entryDy=0;dashed=1;" edge="1" parent="1" source="rV5EWGeJ147Zy9GmdHEg-90" target="rV5EWGeJ147Zy9GmdHEg-83">
          <mxGeometry relative="1" as="geometry" />
        </mxCell>
        <mxCell id="rV5EWGeJ147Zy9GmdHEg-90" value="Рейс" style="rounded=1;whiteSpace=wrap;html=1;" vertex="1" parent="1">
          <mxGeometry x="-470" y="534.5" width="120" height="60" as="geometry" />
        </mxCell>
        <mxCell id="rV5EWGeJ147Zy9GmdHEg-99" style="edgeStyle=orthogonalEdgeStyle;rounded=0;orthogonalLoop=1;jettySize=auto;html=1;exitX=0;exitY=0.5;exitDx=0;exitDy=0;entryX=1;entryY=0.5;entryDx=0;entryDy=0;" edge="1" parent="1" source="rV5EWGeJ147Zy9GmdHEg-102" target="rV5EWGeJ147Zy9GmdHEg-110">
          <mxGeometry relative="1" as="geometry" />
        </mxCell>
        <mxCell id="rV5EWGeJ147Zy9GmdHEg-100" style="edgeStyle=orthogonalEdgeStyle;rounded=0;orthogonalLoop=1;jettySize=auto;html=1;exitX=0.5;exitY=0;exitDx=0;exitDy=0;entryX=0.5;entryY=1;entryDx=0;entryDy=0;" edge="1" parent="1" source="rV5EWGeJ147Zy9GmdHEg-102" target="rV5EWGeJ147Zy9GmdHEg-108">
          <mxGeometry relative="1" as="geometry" />
        </mxCell>
        <mxCell id="rV5EWGeJ147Zy9GmdHEg-101" style="edgeStyle=orthogonalEdgeStyle;rounded=0;orthogonalLoop=1;jettySize=auto;html=1;exitX=0.5;exitY=1;exitDx=0;exitDy=0;entryX=0.5;entryY=0;entryDx=0;entryDy=0;" edge="1" parent="1" source="rV5EWGeJ147Zy9GmdHEg-102" target="rV5EWGeJ147Zy9GmdHEg-105">
          <mxGeometry relative="1" as="geometry" />
        </mxCell>
        <mxCell id="rV5EWGeJ147Zy9GmdHEg-102" value="" style="rounded=0;whiteSpace=wrap;html=1;" vertex="1" parent="1">
          <mxGeometry x="-45" y="-10" width="190" height="250" as="geometry" />
        </mxCell>
        <mxCell id="rV5EWGeJ147Zy9GmdHEg-103" value="Агент" style="shape=umlActor;verticalLabelPosition=bottom;verticalAlign=top;outlineConnect=0;html=1;horizontal=1;" vertex="1" parent="1">
          <mxGeometry y="15" width="100" height="180" as="geometry" />
        </mxCell>
        <mxCell id="rV5EWGeJ147Zy9GmdHEg-104" style="edgeStyle=orthogonalEdgeStyle;rounded=0;orthogonalLoop=1;jettySize=auto;html=1;exitX=0.5;exitY=1;exitDx=0;exitDy=0;entryX=0.5;entryY=0;entryDx=0;entryDy=0;" edge="1" parent="1" source="rV5EWGeJ147Zy9GmdHEg-105" target="rV5EWGeJ147Zy9GmdHEg-107">
          <mxGeometry relative="1" as="geometry" />
        </mxCell>
        <mxCell id="rV5EWGeJ147Zy9GmdHEg-105" value="Поиск билетов" style="rounded=1;whiteSpace=wrap;html=1;" vertex="1" parent="1">
          <mxGeometry x="-10" y="255" width="120" height="60" as="geometry" />
        </mxCell>
        <mxCell id="rV5EWGeJ147Zy9GmdHEg-106" style="edgeStyle=orthogonalEdgeStyle;rounded=0;orthogonalLoop=1;jettySize=auto;html=1;exitX=0.5;exitY=1;exitDx=0;exitDy=0;entryX=0.5;entryY=0;entryDx=0;entryDy=0;" edge="1" parent="1" source="rV5EWGeJ147Zy9GmdHEg-107" target="rV5EWGeJ147Zy9GmdHEg-113">
          <mxGeometry relative="1" as="geometry" />
        </mxCell>
        <mxCell id="rV5EWGeJ147Zy9GmdHEg-107" value="Бронирование билетов" style="rounded=1;whiteSpace=wrap;html=1;" vertex="1" parent="1">
          <mxGeometry x="120" y="355" width="120" height="60" as="geometry" />
        </mxCell>
        <mxCell id="rV5EWGeJ147Zy9GmdHEg-108" value="Отмена бронирования" style="rounded=1;whiteSpace=wrap;html=1;" vertex="1" parent="1">
          <mxGeometry y="-105" width="120" height="60" as="geometry" />
        </mxCell>
        <mxCell id="rV5EWGeJ147Zy9GmdHEg-109" value="Просмотр бронирования" style="rounded=1;whiteSpace=wrap;html=1;" vertex="1" parent="1">
          <mxGeometry x="360" y="-170" width="120" height="60" as="geometry" />
        </mxCell>
        <mxCell id="rV5EWGeJ147Zy9GmdHEg-110" value="Изменение профиля" style="rounded=1;whiteSpace=wrap;html=1;" vertex="1" parent="1">
          <mxGeometry x="-210" y="85" width="120" height="60" as="geometry" />
        </mxCell>
        <mxCell id="rV5EWGeJ147Zy9GmdHEg-111" style="edgeStyle=orthogonalEdgeStyle;rounded=0;orthogonalLoop=1;jettySize=auto;html=1;dashed=1;exitX=0;exitY=0.5;exitDx=0;exitDy=0;" edge="1" parent="1" source="rV5EWGeJ147Zy9GmdHEg-109" target="rV5EWGeJ147Zy9GmdHEg-108">
          <mxGeometry relative="1" as="geometry">
            <mxPoint x="500" y="-140" as="sourcePoint" />
          </mxGeometry>
        </mxCell>
        <mxCell id="rV5EWGeJ147Zy9GmdHEg-112" value="include" style="text;html=1;align=center;verticalAlign=middle;resizable=0;points=[];autosize=1;strokeColor=none;fillColor=none;" vertex="1" parent="1">
          <mxGeometry x="250" y="-170" width="60" height="30" as="geometry" />
        </mxCell>
        <mxCell id="rV5EWGeJ147Zy9GmdHEg-113" value="Оплата билетов" style="rounded=1;whiteSpace=wrap;html=1;" vertex="1" parent="1">
          <mxGeometry x="80" y="445" width="120" height="60" as="geometry" />
        </mxCell>
        <mxCell id="rV5EWGeJ147Zy9GmdHEg-114" style="edgeStyle=orthogonalEdgeStyle;rounded=0;orthogonalLoop=1;jettySize=auto;html=1;exitX=0.5;exitY=0;exitDx=0;exitDy=0;entryX=0;entryY=0.5;entryDx=0;entryDy=0;dashed=1;" edge="1" parent="1" source="rV5EWGeJ147Zy9GmdHEg-115" target="rV5EWGeJ147Zy9GmdHEg-113">
          <mxGeometry relative="1" as="geometry" />
        </mxCell>
        <mxCell id="rV5EWGeJ147Zy9GmdHEg-115" value="Данные карты" style="rounded=1;whiteSpace=wrap;html=1;" vertex="1" parent="1">
          <mxGeometry y="560" width="120" height="60" as="geometry" />
        </mxCell>
        <mxCell id="rV5EWGeJ147Zy9GmdHEg-116" style="edgeStyle=orthogonalEdgeStyle;rounded=0;orthogonalLoop=1;jettySize=auto;html=1;exitX=0.5;exitY=0;exitDx=0;exitDy=0;entryX=0.5;entryY=1;entryDx=0;entryDy=0;dashed=1;" edge="1" parent="1" source="rV5EWGeJ147Zy9GmdHEg-117" target="rV5EWGeJ147Zy9GmdHEg-113">
          <mxGeometry relative="1" as="geometry" />
        </mxCell>
        <mxCell id="rV5EWGeJ147Zy9GmdHEg-117" value="Дата" style="rounded=1;whiteSpace=wrap;html=1;" vertex="1" parent="1">
          <mxGeometry x="140" y="534.5" width="120" height="60" as="geometry" />
        </mxCell>
        <mxCell id="rV5EWGeJ147Zy9GmdHEg-118" style="edgeStyle=orthogonalEdgeStyle;rounded=0;orthogonalLoop=1;jettySize=auto;html=1;exitX=0.5;exitY=0;exitDx=0;exitDy=0;entryX=1;entryY=0.5;entryDx=0;entryDy=0;dashed=1;" edge="1" parent="1" source="rV5EWGeJ147Zy9GmdHEg-119" target="rV5EWGeJ147Zy9GmdHEg-113">
          <mxGeometry relative="1" as="geometry" />
        </mxCell>
        <mxCell id="rV5EWGeJ147Zy9GmdHEg-119" value="Рейс" style="rounded=1;whiteSpace=wrap;html=1;" vertex="1" parent="1">
          <mxGeometry x="280" y="544.5" width="120" height="60" as="geometry" />
        </mxCell>
        <mxCell id="rV5EWGeJ147Zy9GmdHEg-122" style="edgeStyle=orthogonalEdgeStyle;rounded=0;orthogonalLoop=1;jettySize=auto;html=1;exitX=0.5;exitY=0;exitDx=0;exitDy=0;entryX=0.5;entryY=1;entryDx=0;entryDy=0;" edge="1" parent="1" source="rV5EWGeJ147Zy9GmdHEg-120" target="rV5EWGeJ147Zy9GmdHEg-16">
          <mxGeometry relative="1" as="geometry" />
        </mxCell>
        <mxCell id="rV5EWGeJ147Zy9GmdHEg-123" style="edgeStyle=orthogonalEdgeStyle;rounded=0;orthogonalLoop=1;jettySize=auto;html=1;exitX=1;exitY=0.25;exitDx=0;exitDy=0;entryX=0.5;entryY=1;entryDx=0;entryDy=0;" edge="1" parent="1" source="rV5EWGeJ147Zy9GmdHEg-120" target="rV5EWGeJ147Zy9GmdHEg-17">
          <mxGeometry relative="1" as="geometry" />
        </mxCell>
        <mxCell id="rV5EWGeJ147Zy9GmdHEg-124" style="edgeStyle=orthogonalEdgeStyle;rounded=0;orthogonalLoop=1;jettySize=auto;html=1;exitX=0;exitY=0.25;exitDx=0;exitDy=0;entryX=0.5;entryY=1;entryDx=0;entryDy=0;" edge="1" parent="1" source="rV5EWGeJ147Zy9GmdHEg-120" target="rV5EWGeJ147Zy9GmdHEg-18">
          <mxGeometry relative="1" as="geometry" />
        </mxCell>
        <mxCell id="rV5EWGeJ147Zy9GmdHEg-127" style="edgeStyle=orthogonalEdgeStyle;rounded=0;orthogonalLoop=1;jettySize=auto;html=1;exitX=0.5;exitY=1;exitDx=0;exitDy=0;entryX=0.5;entryY=0;entryDx=0;entryDy=0;" edge="1" parent="1" source="rV5EWGeJ147Zy9GmdHEg-120" target="rV5EWGeJ147Zy9GmdHEg-20">
          <mxGeometry relative="1" as="geometry" />
        </mxCell>
        <mxCell id="rV5EWGeJ147Zy9GmdHEg-133" style="edgeStyle=orthogonalEdgeStyle;rounded=0;orthogonalLoop=1;jettySize=auto;html=1;exitX=0;exitY=0.75;exitDx=0;exitDy=0;entryX=1;entryY=0.5;entryDx=0;entryDy=0;" edge="1" parent="1" source="rV5EWGeJ147Zy9GmdHEg-120" target="rV5EWGeJ147Zy9GmdHEg-132">
          <mxGeometry relative="1" as="geometry" />
        </mxCell>
        <mxCell id="rV5EWGeJ147Zy9GmdHEg-120" value="" style="rounded=0;whiteSpace=wrap;html=1;" vertex="1" parent="1">
          <mxGeometry x="820" y="-5" width="190" height="250" as="geometry" />
        </mxCell>
        <mxCell id="rV5EWGeJ147Zy9GmdHEg-121" value="Администратор" style="shape=umlActor;verticalLabelPosition=bottom;verticalAlign=top;outlineConnect=0;html=1;horizontal=1;" vertex="1" parent="1">
          <mxGeometry x="865" y="20" width="100" height="180" as="geometry" />
        </mxCell>
        <mxCell id="rV5EWGeJ147Zy9GmdHEg-128" value="include" style="text;html=1;align=center;verticalAlign=middle;resizable=0;points=[];autosize=1;strokeColor=none;fillColor=none;" vertex="1" parent="1">
          <mxGeometry x="270" y="445" width="60" height="30" as="geometry" />
        </mxCell>
        <mxCell id="rV5EWGeJ147Zy9GmdHEg-129" value="include" style="text;html=1;align=center;verticalAlign=middle;resizable=0;points=[];autosize=1;strokeColor=none;fillColor=none;" vertex="1" parent="1">
          <mxGeometry x="-470" y="435" width="60" height="30" as="geometry" />
        </mxCell>
        <mxCell id="rV5EWGeJ147Zy9GmdHEg-132" value="&lt;span style=&quot;color: rgba(0, 0, 0, 0); font-family: monospace; font-size: 0px; text-align: start; text-wrap: nowrap;&quot;&gt;%3CmxGraphModel%3E%3Croot%3E%3CmxCell%20id%3D%220%22%2F%3E%3CmxCell%20id%3D%221%22%20parent%3D%220%22%2F%3E%3CmxCell%20id%3D%222%22%20value%3D%22%D0%A2%D0%B5%D1%85%D0%BD%D0%B8%D1%87%D0%B5%D1%81%D0%BA%D0%BE%D0%B5%20%D0%BE%D0%B1%D1%81%D0%BB%D1%83%D0%B6%D0%B8%D0%B2%D0%B0%D0%BD%D0%B8%D0%B5%22%20style%3D%22rounded%3D1%3BwhiteSpace%3Dwrap%3Bhtml%3D1%3B%22%20vertex%3D%221%22%20parent%3D%221%22%3E%3CmxGeometry%20x%3D%22855%22%20y%3D%22320%22%20width%3D%22120%22%20height%3D%2260%22%20as%3D%22geometry%22%2F%3E%3C%2FmxCell%3E%3C%2Froot%3E%3C%2FmxGraphModel%3E&lt;/span&gt;&lt;span style=&quot;color: rgba(0, 0, 0, 0); font-family: monospace; font-size: 0px; text-align: start; text-wrap: nowrap;&quot;&gt;%3CmxGraphModel%3E%3Croot%3E%3CmxCell%20id%3D%220%22%2F%3E%3CmxCell%20id%3D%221%22%20parent%3D%220%22%2F%3E%3CmxCell%20id%3D%222%22%20value%3D%22%D0%A2%D0%B5%D1%85%D0%BD%D0%B8%D1%87%D0%B5%D1%81%D0%BA%D0%BE%D0%B5%20%D0%BE%D0%B1%D1%81%D0%BB%D1%83%D0%B6%D0%B8%D0%B2%D0%B0%D0%BD%D0%B8%D0%B5%22%20style%3D%22rounded%3D1%3BwhiteSpace%3Dwrap%3Bhtml%3D1%3B%22%20vertex%3D%221%22%20parent%3D%221%22%3E%3CmxGeometry%20x%3D%22855%22%20y%3D%22320%22%20width%3D%22120%22%20height%3D%2260%22%20as%3D%22geometry%22%2F%3E%3C%2FmxCell%3E%3C%2Froot%3E%3C%2FmxGraphModel%3E&lt;/span&gt;&lt;span style=&quot;color: rgba(0, 0, 0, 0); font-family: monospace; font-size: 0px; text-align: start; text-wrap: nowrap;&quot;&gt;%3CmxGraphModel%3E%3Croot%3E%3CmxCell%20id%3D%220%22%2F%3E%3CmxCell%20id%3D%221%22%20parent%3D%220%22%2F%3E%3CmxCell%20id%3D%222%22%20value%3D%22%D0%A2%D0%B5%D1%85%D0%BD%D0%B8%D1%87%D0%B5%D1%81%D0%BA%D0%BE%D0%B5%20%D0%BE%D0%B1%D1%81%D0%BB%D1%83%D0%B6%D0%B8%D0%B2%D0%B0%D0%BD%D0%B8%D0%B5%22%20style%3D%22rounded%3D1%3BwhiteSpace%3Dwrap%3Bhtml%3D1%3B%22%20vertex%3D%221%22%20parent%3D%221%22%3E%3CmxGeometry%20x%3D%22855%22%20y%3D%22320%22%20width%3D%22120%22%20height%3D%2260%22%20as%3D%22geometry%22%2F%3E%3C%2FmxCell%3E%3C%2Froot%3E%3C%2FmxGraphModel%3E&lt;/span&gt;Создание/Просмотр отчётов" style="rounded=1;whiteSpace=wrap;html=1;" vertex="1" parent="1">
          <mxGeometry x="660" y="170" width="120" height="60" as="geometry" />
        </mxCell>
      </root>
    </mxGraphModel>
  </diagram>
</mxfile>
